# xmcd CD database file
#
# Track frame offsets:
#	150
#	20314
#	36552
#	54027
#	67435
#	78888
#	93066
#	108740
#	127252
#	139965
#	146891
#
# Disc length: 2153 seconds
#
# Revision: 2
# Processed by: cddbd v1.5.2PL0 Copyright (c) Steve Scherf et al.
# Submitted via: CDex 1.51
#
DISCID=a308670b
DTITLE=Rui Veloso - Ar De Rock
DYEAR=1980
DGENRE=Pop Rock
TTITLE0=Rapariguinha Do Shopping
TTITLE1=Ai Quem Me Dera A Mim Rolar Contigo Num Palheiro
TTITLE2=Bairro Do Oriente
TTITLE3=Afurada
TTITLE4=Chico Fininho
TTITLE5=Sei De Uma Camponesa
TTITLE6=Miúda (Fora De Mim)
TTITLE7=Saiu Para A Rua
TTITLE8=No Domingo Fui Às Antas
TTITLE9=Harmónica Azul (Instrumental)
TTITLE10=Donzela Diesel
EXTD=YEAR: 1980
EXTT0=
EXTT1=
EXTT2=
EXTT3=
EXTT4=
EXTT5=
EXTT6=
EXTT7=
EXTT8=
EXTT9=
EXTT10=
PLAYORDER=
